HIERARCHY
ROOT Hips
{
  OFFSET 52.4707 92.7934 5.774
  CHANNELS 6 Xposition Yposition Zposition Zrotation Xrotation Yrotation
  JOINT spine
  {
    OFFSET 0 7.80059 0.448573
    CHANNELS 3 Zrotation Xrotation Yrotation
    JOINT spine1
    {
      OFFSET 0 10.1364 0
      CHANNELS 3 Zrotation Xrotation Yrotation
      JOINT spine2
      {
        OFFSET 0 9.71251 0
        CHANNELS 3 Zrotation Xrotation Yrotation
        JOINT Neck
        {
          OFFSET 0 24.9361 1.18887
          CHANNELS 3 Zrotation Xrotation Yrotation
          JOINT Head
          {
            OFFSET 0 7.53384 0
            CHANNELS 3 Zrotation Xrotation Yrotation
            End Site
            {
              OFFSET 0 18.2361 -6.01402
            }
          }
        }
        JOINT RightShoulder
        {
          OFFSET -4.08965 10.4888 -0.569457
          CHANNELS 3 Zrotation Xrotation Yrotation
          JOINT RightArm
          {
            OFFSET 0 13.757 0
            CHANNELS 3 Zrotation Xrotation Yrotation
            JOINT RightArmRoll
            {
              OFFSET 0 6.94478 0
              CHANNELS 3 Zrotation Xrotation Yrotation
              JOINT RightForeArm
              {
                OFFSET 0 20.2277 0
                CHANNELS 3 Zrotation Xrotation Yrotation
                JOINT RightForeArmRoll
                {
                  OFFSET 0 7.79312 0
                  CHANNELS 3 Zrotation Xrotation Yrotation
                  JOINT RightHand
                  {
                    OFFSET 0 15.6391 0
                    CHANNELS 3 Zrotation Xrotation Yrotation
                    End Site
                    {
                      OFFSET 0 0 0
                    }
                  }
                }
              }
            }
          }
        }
        JOINT LeftShoulder
        {
          OFFSET 4.08965 10.4888 -0.569457
          CHANNELS 3 Zrotation Xrotation Yrotation
          JOINT LeftArm
          {
            OFFSET 0 13.757 0
            CHANNELS 3 Zrotation Xrotation Yrotation
            JOINT LeftArmRoll
            {
              OFFSET 0 6.94478 0
              CHANNELS 3 Zrotation Xrotation Yrotation
              JOINT LeftForeArm
              {
                OFFSET 0 20.2277 0
                CHANNELS 3 Zrotation Xrotation Yrotation
                JOINT LeftForeArmRoll
                {
                  OFFSET 0 7.79312 0
                  CHANNELS 3 Zrotation Xrotation Yrotation
                  JOINT LeftHand
                  {
                    OFFSET 0 15.6391 0
                    CHANNELS 3 Zrotation Xrotation Yrotation
                    End Site
                    {
                      OFFSET 0 0 0
                    }
                  }
                }
              }
            }
          }
        }
      }
    }
  }
  JOINT RightUpLeg
  {
    OFFSET -6.91416 -1.26788 -1.06358
    CHANNELS 3 Zrotation Xrotation Yrotation
    JOINT RightUpLegRoll
    {
      OFFSET 0 18.3378 0
      CHANNELS 3 Zrotation Xrotation Yrotation
      JOINT RightLeg
      {
        OFFSET 0 -22.7085 0
        CHANNELS 3 Zrotation Xrotation Yrotation
        JOINT RightLegRoll
        {
          OFFSET 0 22.7828 0
          CHANNELS 3 Zrotation Xrotation Yrotation
          JOINT RightFoot
          {
            OFFSET 0 18.9629 0
            CHANNELS 3 Zrotation Xrotation Yrotation
            JOINT RightToeBase
            {
              OFFSET 0 15.852 0
              CHANNELS 3 Zrotation Xrotation Yrotation
              End Site
              {
                OFFSET 0.00671906 7.67701 -0.884893
              }
            }
          }
        }
      }
    }
  }
  JOINT LeftUpLeg
  {
    OFFSET 6.91416 -1.26788 -1.06358
    CHANNELS 3 Zrotation Xrotation Yrotation
    JOINT LeftUpLegRoll
    {
      OFFSET 0 18.3379 0
      CHANNELS 3 Zrotation Xrotation Yrotation
      JOINT LeftLeg
      {
        OFFSET 0 22.7084 0
        CHANNELS 3 Zrotation Xrotation Yrotation
        JOINT LeftLegRoll
        {
          OFFSET 0 22.9934 0
          CHANNELS 3 Zrotation Xrotation Yrotation
          JOINT LeftFoot
          {
            OFFSET 0 18.7522 0
            CHANNELS 3 Zrotation Xrotation Yrotation
            JOINT LeftToeBase
            {
              OFFSET 0 15.852 0
              CHANNELS 3 Zrotation Xrotation Yrotation
              End Site
              {
                OFFSET -0.030112 7.67701 -0.884892
              }
            }
          }
        }
      }
    }
  }
}
MOTION
Frames: 11
Frame Time: 0.00208333
53.2332 91.8381 9.01839 -1.80563 -6.14959 -23.344 -0.0545004 0.36082 0.171101 -0.11737 4.72426 0.350142 -0.121792 6.36934 0.352555 5.13712 18.0496 6.97175 -12.679 -16.6713 5.36416 73.8505 -5.91717 -4.41825 82.8009 -15.9796 -57.4838 -6.52237e-007 1.30006e-007 -1.69017e-007 -146.337 57.2543 109.521 9.14381e-007 5.56371e-006 -3 8.02889 -4.95144 0.697672 -49.0754 -2.83769 0.826556 -84.4964 39.2601 -26.2925 9.24349e-015 -1.27222e-014 9.64106e-015 -175.989 69.4644 173.556 7.23881e-006 -1.7364e-006 3 -8.02919 -4.95156 -0.69773 178.754 -2.88562 -0.319231 180 7.01492e-015 178.708 -178.541 25.9066 178.703 -2.69141e-006 -1.98814e-007 1.36454 -60.2452 82.655 62.5243 8.14082 25.4297 -3.21675 -175.244 12.7323 -0.822063 4.54188e-006 -4.6773e-006 -1.22381 -7.20071 -25.4706 -0.991411 -1.84517e-006 -2.56875e-006 -0.481102 20.5634 69.3143 -20.7294 -8.15812 25.5509 3.49988 
53.238 91.8482 9.00623 -1.84538 -6.12362 -23.5326 -0.0501229 0.361447 0.164271 -0.10779 4.72554 0.335831 -0.112024 6.37062 0.338066 5.54367 18.0604 6.97939 -13.1352 -16.5769 5.39702 74.0309 -5.92406 -4.4296 82.2644 -16.2936 -57.2439 -6.52237e-007 1.30006e-007 -1.69017e-007 -146.557 57.0526 109.56 9.14381e-007 5.56371e-006 -3 8.02889 -4.95144 0.697672 -48.711 -2.83338 0.785573 -84.1653 39.7083 -26.6976 -4.47266e-015 -6.36111e-015 -6.06293e-015 -175.938 70.343 173.407 7.23881e-006 -1.7364e-006 3 -8.02919 -4.95156 -0.69773 178.752 -2.82566 -0.32956 180 7.01493e-015 178.708 -178.532 25.9164 178.701 -2.69141e-006 -1.98814e-007 1.36523 -60.0658 82.6417 62.3435 8.14048 25.4247 -3.22359 -175.187 12.7241 -0.8788 4.54188e-006 -4.6773e-006 -1.22411 -7.21815 -25.4841 -0.995196 -1.84517e-006 -2.56875e-006 -0.481169 20.5816 69.3308 -20.745 -8.15875 25.5602 3.50001 
53.248 91.8445 8.99332 -1.88504 -6.09771 -23.72 -0.0455543 0.362444 0.157657 -0.0978156 4.72756 0.321923 -0.101864 6.37264 0.323974 5.94117 18.0666 6.98713 -13.5819 -16.48 5.43016 74.2039 -5.93053 -4.44033 81.7447 -16.5999 -56.99 -6.52237e-007 1.30006e-007 -1.69017e-007 -146.778 56.8599 109.613 9.14381e-007 5.56371e-006 -3 8.02889 -4.95144 0.697672 -48.3471 -2.83094 0.745814 -83.832 40.1567 -27.097 2.98177e-015 -9.54166e-015 6.36111e-015 -175.887 71.2538 173.268 7.23881e-006 -1.7364e-006 3 -8.02919 -4.95156 -0.69773 178.751 -2.76543 -0.339778 180 7.01493e-015 178.709 -178.523 25.9271 178.698 -2.69141e-006 -1.98814e-007 1.36591 -59.8853 82.6282 62.1616 8.14016 25.4198 -3.23015 -175.13 12.716 -0.935235 4.54188e-006 -4.6773e-006 -1.22436 -7.23541 -25.4975 -0.998967 -1.84517e-006 -2.56875e-006 -0.481235 20.5995 69.3471 -20.7603 -8.15938 25.5694 3.50012 
53.2689 91.8535 8.9858 -1.92474 -6.07198 -23.906 -0.0407842 0.363827 0.15125 -0.0874427 4.73035 0.308403 -0.0913106 6.37543 0.310264 6.32978 18.0698 6.99503 -14.0192 -16.3826 5.46341 74.3701 -5.93663 -4.45054 81.2411 -16.9011 -56.7239 -6.52237e-007 1.30006e-007 -1.69017e-007 -147 56.6766 109.679 9.14381e-007 5.56371e-006 -3 8.02889 -4.95144 0.697672 -47.9838 -2.83031 0.707296 -83.4959 40.6058 -27.4909 7.55382e-015 3.18055e-015 7.05686e-015 -175.834 72.197 173.14 7.23881e-006 -1.7364e-006 3 -8.02919 -4.95156 -0.69773 178.749 -2.70514 -0.349845 180 7.01493e-015 178.709 -178.514 25.9386 178.695 -2.69141e-006 -1.98814e-007 1.36658 -59.7049 82.6146 61.9799 8.13985 25.4152 -3.23653 -175.073 12.7081 -0.991304 4.54188e-006 -4.6773e-006 -1.22456 -7.25242 -25.5112 -1.00276 -1.84517e-006 -2.56875e-006 -0.481313 20.617 69.3631 -20.7753 -8.16 25.5784 3.50022 
53.277 91.8522 8.96586 -1.96461 -6.04657 -24.0904 -0.0358021 0.365612 0.145044 -0.0766686 4.73394 0.295254 -0.0803596 6.37902 0.296918 6.70965 18.0717 7.00315 -14.447 -16.2871 5.49659 74.5303 -5.94241 -4.46029 80.7532 -17.1994 -56.4475 -6.52237e-007 1.30006e-007 -1.69017e-007 -147.222 56.5032 109.759 9.14381e-007 5.56371e-006 -3 8.02889 -4.95144 0.697672 -47.621 -2.8314 0.670041 -83.1563 41.0561 -27.8797 9.0447e-015 1.59028e-014 7.15625e-015 -175.779 73.1725 173.023 7.23881e-006 -1.7364e-006 3 -8.02919 -4.95156 -0.69773 178.749 -2.64502 -0.359717 180 7.01493e-015 178.71 -178.506 25.9509 178.693 -2.69141e-006 -1.98814e-007 1.36721 -59.5255 82.601 61.7992 8.13955 25.4106 -3.24281 -175.016 12.7006 -1.04694 4.54188e-006 -4.6773e-006 -1.22472 -7.26915 -25.5258 -1.0066 -1.84517e-006 -2.56875e-006 -0.481416 20.6342 69.379 -20.7904 -8.16062 25.5875 3.50033 
53.2933 91.8632 8.95913 -2.00477 -6.02162 -24.273 -0.0305977 0.367817 0.139029 -0.0654904 4.73837 0.282461 -0.069008 6.38345 0.283923 7.08092 18.0736 7.01156 -14.8653 -16.1957 5.52953 74.6851 -5.94792 -4.46967 80.2805 -17.4974 -56.1627 -6.52237e-007 1.30006e-007 -1.69017e-007 -147.444 56.3399 109.852 9.14381e-007 5.56371e-006 -3 8.02889 -4.95144 0.697672 -47.2586 -2.83413 0.634068 -82.8128 41.5081 -28.2638 7.35503e-015 0 4.17448e-015 -175.721 74.1803 172.915 7.23881e-006 -1.7364e-006 3 -8.02919 -4.95156 -0.69773 178.748 -2.58528 -0.369352 180 7.01493e-015 178.71 -178.499 25.9638 178.691 -2.69141e-006 -1.98814e-007 1.3678 -59.3484 82.5874 61.6209 8.13925 25.406 -3.24906 -174.959 12.6937 -1.10209 4.54188e-006 -4.6773e-006 -1.22484 -7.28554 -25.5419 -1.01054 -1.84517e-006 -2.56875e-006 -0.481557 20.6513 69.3949 -20.8055 -8.16125 25.5966 3.50046 
53.3094 91.8676 8.93232 -2.04535 -5.99726 -24.4534 -0.0251606 0.370458 0.133199 -0.0539051 4.74367 0.270008 -0.0572526 6.38875 0.27126 7.44376 18.0771 7.02032 -15.2739 -16.1106 5.56206 74.8352 -5.95321 -4.47875 79.8224 -17.7975 -55.8716 -6.52237e-007 1.30006e-007 -1.69017e-007 -147.667 56.1873 109.958 9.14381e-007 5.56371e-006 -3 8.02889 -4.95144 0.697672 -46.8967 -2.83844 0.599396 -82.4646 41.9622 -28.6434 -6.4605e-015 -3.18055e-015 -1.21259e-014 -175.66 75.2206 172.818 7.23881e-006 -1.7364e-006 3 -8.02919 -4.95156 -0.69773 178.749 -2.52615 -0.378709 180 7.01493e-015 178.71 -178.492 25.9774 178.689 -2.69141e-006 -1.98814e-007 1.36833 -59.1746 82.5739 61.446 8.13895 25.4015 -3.25538 -174.902 12.6875 -1.15668 4.54188e-006 -4.6773e-006 -1.22493 -7.30152 -25.5599 -1.01459 -1.84517e-006 -2.56875e-006 -0.481748 20.6682 69.4111 -20.8208 -8.16188 25.6058 3.5006 
53.3227 91.8725 8.92503 -2.0865 -5.97363 -24.6316 -0.0194803 0.37355 0.127545 -0.0419097 4.74987 0.257879 -0.0450903 6.39495 0.258915 7.79829 18.0838 7.02949 -15.6729 -16.0341 5.594 74.9814 -5.95834 -4.48762 79.3786 -18.1024 -55.5763 -6.52237e-007 1.30006e-007 -1.69017e-007 -147.888 56.0457 110.076 9.14381e-007 5.56371e-006 -3 8.02889 -4.95144 0.697672 -46.5351 -2.84423 0.566047 -82.1111 42.4191 -29.0192 -3.47873e-015 9.54166e-015 -1.96797e-014 -175.594 76.2933 172.733 7.23881e-006 -1.7364e-006 3 -8.02919 -4.95156 -0.69773 178.75 -2.46785 -0.387745 180 7.01493e-015 178.711 -178.486 25.9915 178.687 -2.69141e-006 -1.98814e-007 1.36878 -59.005 82.5606 61.2754 8.13863 25.3968 -3.26184 -174.845 12.6822 -1.21064 4.54188e-006 -4.6773e-006 -1.225 -7.31706 -25.5805 -1.01881 -1.84517e-006 -2.56875e-006 -0.482003 20.6851 69.4275 -20.8364 -8.16253 25.6152 3.50077 
53.3311 91.8753 8.90595 -2.12833 -5.95085 -24.8072 -0.0135465 0.377112 0.12206 -0.0295011 4.75701 0.246058 -0.0325179 6.40209 0.246871 8.14468 18.0952 7.03916 -16.0621 -15.9684 5.62517 75.1244 -5.96337 -4.49634 78.9484 -18.4147 -55.2791 -6.52237e-007 1.30006e-007 -1.69017e-007 -148.109 55.9155 110.206 9.14381e-007 5.56371e-006 -3 8.02889 -4.95144 0.697672 -46.174 -2.85143 0.534039 -81.7516 42.879 -29.3913 -4.37326e-015 0 -1.20265e-014 -175.523 77.3984 172.659 7.23881e-006 -1.7364e-006 3 -8.02919 -4.95156 -0.69773 178.752 -2.4106 -0.396417 180 7.01493e-015 178.711 -178.481 26.0062 178.686 -2.69141e-006 -1.98814e-007 1.36913 -58.8407 82.5476 61.1103 8.13831 25.392 -3.26854 -174.788 12.678 -1.26393 4.54188e-006 -4.6773e-006 -1.22506 -7.3321 -25.6041 -1.02321 -1.84517e-006 -2.56875e-006 -0.482334 20.702 69.4444 -20.8526 -8.16319 25.6248 3.50096 
53.3449 91.8826 8.89336 -2.171 -5.92907 -24.9801 -0.00734886 0.381159 0.116736 -0.0166765 4.76512 0.234529 -0.0195322 6.4102 0.235113 8.48308 18.1128 7.04937 -16.4415 -15.9158 5.65541 75.2648 -5.96834 -4.505 78.5315 -18.7373 -54.9823 -6.52237e-007 1.30006e-007 -1.69017e-007 -148.329 55.797 110.349 9.14381e-007 5.56371e-006 -3 8.02889 -4.95144 0.697672 -45.8131 -2.85996 0.503392 -81.3853 43.3425 -29.7604 9.34288e-015 3.18055e-015 8.49804e-015 -175.449 78.5359 172.599 7.23881e-006 -1.7364e-006 3 -8.02919 -4.95156 -0.69773 178.754 -2.35462 -0.404685 180 7.01493e-015 178.711 -178.478 26.0213 178.685 -2.69141e-006 -1.98814e-007 1.36939 -58.6828 82.5351 60.9516 8.13797 25.387 -3.27555 -174.73 12.6751 -1.31646 4.54188e-006 -4.6773e-006 -1.22511 -7.34658 -25.6313 -1.02785 -1.84517e-006 -2.56875e-006 -0.482754 20.719 69.4618 -20.8694 -8.16388 25.6347 3.5012 
53.3589 91.8879 8.87511 -2.21483 -5.90842 -25.1513 -0.000781656 0.385913 0.111539 -0.00320302 4.77464 0.223196 -0.00589873 6.41972 0.223539 8.81132 18.1345 7.0607 -16.8101 -15.8746 5.68519 75.401 -5.97276 -4.51326 78.1289 -19.0664 -54.6789 -6.52237e-007 1.30006e-007 -1.69017e-007 -148.552 55.6893 110.509 9.14381e-007 5.56371e-006 -3 8.02889 -4.95144 0.697672 -45.4482 -2.87194 0.475228 -81.0238 43.8117 -30.1237 9.24349e-015 1.27222e-014 6.01324e-015 -175.43 79.7071 172.608 7.23881e-006 -1.7364e-006 3 -8.02919 -4.95156 -0.69773 178.758 -2.3002 -0.412414 180 7.01494e-015 178.712 -178.475 26.0365 178.685 -2.69141e-006 -1.98814e-007 1.36953 -58.5263 82.5225 60.7946 8.13762 25.3818 -3.28278 -174.672 12.6723 -1.36862 4.54188e-006 -4.6773e-006 -1.22516 -7.3607 -25.661 -1.03272 -1.84517e-006 -2.56875e-006 -0.483287 20.7359 69.4795 -20.8865 -8.16458 25.645 3.50146 
